<?xml version="1.0" encoding="UTF-8" standalone="no"?>
<!-- Created with Inkscape (http://www.inkscape.org/) -->

<svg
   xmlns:dc="http://purl.org/dc/elements/1.1/"
   xmlns:cc="http://creativecommons.org/ns#"
   xmlns:rdf="http://www.w3.org/1999/02/22-rdf-syntax-ns#"
   xmlns:svg="http://www.w3.org/2000/svg"
   xmlns="http://www.w3.org/2000/svg"
   xmlns:sodipodi="http://sodipodi.sourceforge.net/DTD/sodipodi-0.dtd"
   xmlns:inkscape="http://www.inkscape.org/namespaces/inkscape"
   id="svg3355"
   version="1.1"
   inkscape:version="0.91 r13725"
   xml:space="preserve"
   width="1051.25"
   height="743.75"
   viewBox="0 0 1051.25 743.75"
   sodipodi:docname="3axestry.svg"><metadata
     id="metadata3361"><rdf:RDF><cc:Work
         rdf:about=""><dc:format>image/svg+xml</dc:format><dc:type
           rdf:resource="http://purl.org/dc/dcmitype/StillImage" /><dc:title></dc:title></cc:Work></rdf:RDF></metadata><defs
     id="defs3359"><clipPath
       clipPathUnits="userSpaceOnUse"
       id="clipPath3395"><path
         d="m 0,0 841.68,0 0,595.44 L 0,595.44 0,0 Z"
         id="path3397"
         inkscape:connector-curvature="0" /></clipPath><clipPath
       clipPathUnits="userSpaceOnUse"
       id="clipPath3407"><path
         d="m 43.57,31.26 701.46,0 0,532.92 -701.46,0 0,-532.92 z"
         id="path3409"
         inkscape:connector-curvature="0" /></clipPath></defs><sodipodi:namedview
     pagecolor="#ffffff"
     bordercolor="#666666"
     borderopacity="1"
     objecttolerance="10"
     gridtolerance="10"
     guidetolerance="10"
     inkscape:pageopacity="0"
     inkscape:pageshadow="2"
     inkscape:window-width="1855"
     inkscape:window-height="1056"
     id="namedview3357"
     showgrid="false"
     inkscape:zoom="0.87372253"
     inkscape:cx="605.56296"
     inkscape:cy="483.81542"
     inkscape:window-x="65"
     inkscape:window-y="24"
     inkscape:window-maximized="1"
     inkscape:current-layer="g3363" /><g
     id="g3363"
     inkscape:groupmode="layer"
     inkscape:label="3axestry"
     transform="matrix(1.25,0,0,-1.25,0,743.75)"><g
       id="g3365" /><g
       id="g3367" /><g
       id="g3369" /><g
       id="g3371" /><g
       id="g3373" /><g
       id="g3375" /><g
       id="g3377" /><g
       id="g3379" /><g
       id="g3381" /><g
       id="g3383" /><g
       id="g3385" /><g
       id="g3387" /><g
       id="g3389" /><g
       id="g3391"><g
         id="g3393"
         clip-path="url(#clipPath3395)"><path
           d="m 0,0 841.68,0 0,595.44 L 0,595.44 0,0 Z"
           style="fill:#ffffff;fill-opacity:1;fill-rule:nonzero;stroke:#ffffff;stroke-width:1.07000005;stroke-linecap:round;stroke-linejoin:round;stroke-miterlimit:10;stroke-dasharray:none;stroke-opacity:1"
           id="path3399"
           inkscape:connector-curvature="0" /></g></g><g
       id="g3401" /><g
       id="g3403"><g
         id="g3405"
         clip-path="url(#clipPath3407)"><path
           d="m 43.57,31.26 701.46,0 0,532.92 -701.46,0 0,-532.92 z"
           style="fill:#ffffff;fill-opacity:1;fill-rule:nonzero;stroke:none"
           id="path3411"
           inkscape:connector-curvature="0" /><path
           d="m 358.93,538.68 2.02,-0.9 0.89,1.01 -2.23,0.92 -0.75,-1 0.47,-1.09 -0.17,0.88 -0.39,1.17 -0.6,-0.7 0.31,-1.05 1.15,0.43 0.9,0.55 -1.31,0.1 -1.54,-0.31 -0.37,-0.68 -0.51,0.59 -0.46,0.77 -0.87,-0.99 0.26,-0.36 0.18,1.27 -1.56,-0.05 1.8,-1.37 2.94,0.17 0.32,1.44 0.56,0.23 0.76,-1.28 1.9,-0.7 0.78,1.11 -1.53,1.12 -1.29,-0.93 1.06,-1.3 1.24,0.7 -1.12,1.22 -0.94,-0.48 1.25,-1.28 0.69,0.18 -0.3,1.22 -0.47,0.05 1.07,-0.96 1.8,-0.28 0.77,0.52 -0.83,0.78 -2.06,-0.19 -0.15,-1.2 0.28,0.36 -2.01,1.34 -1.57,-0.45 1.25,-1.18 1.15,0.28 -0.68,0.77 -0.63,-0.08 0.23,-0.79 1.23,-1.2 0.82,-0.42 -1.46,-0.03 -0.91,-1.45 1.1,-2.49 0.39,-2.4 0.37,-2.25 -0.73,-2.78 -0.46,-3.44 2.89,-3.09 1.64,-2.75 1.96,-3.43 5.94,-3.42 4.23,-2.67 0.29,-3.31 1.5,-3.77 0.99,-2.34 -1.53,-2.32 -0.27,-4.25 2.34,-3.82 -5.6,-1.99 -51.52,-2.62 -59.63,-3.99 45.88,-3.36 64.42,-2.57 5.82,-2.93 1.61,-3.07 2.23,-3.14 -0.38,-3.48 0.41,-3.21 -10.99,-2.65 -30.48,-2.8 -17.05,-3.51 3.11,-3.41 17.06,-2.61 53.53,-2.9 64.11,-3.69 58.87,-3.19 56.78,-2.53 54.68,-2.7 20.56,-3.35 15.28,-4.03 27.14,-2.93 9.01,-1.46 -15.8,-2.94 -22.45,-4.97 8.94,-3.69 24.54,-1.67 12.11,-2.44 -2.03,-4.15 -3.49,-3.68 -9.15,-2.33 -21.45,-2.62 -16.62,-3.5 -13.06,-3.25 -19.01,-2.93 -26.85,-3.08 -21.1,-2.94 -7.74,-3.08 -6.59,-3.28 -42.25,-3.11 -80.11,-3.34 -41.59,-3.28 1.97,-2.82 3.55,-3.13 1.03,-3.52 -1.92,-3.37 -1.1,-2.97 2.45,-3.1 2.91,-3.44 3.54,-2.9 4.57,-3.08 4.02,-3.7 6.66,-3 9.82,-2.76 12.29,-3.65 -10.59,-3.41 -34.36,-2.71 -32.58,-3.22 -33.14,-3.55 -30.96,-3.18 -17.85,-3.22 -11.05,-3.15 -11.98,-2.99 -12.9,-3.45 -13.73,-3.3 -13.38,-2.17 -16.14,-2.04 -8.86,-2.88 -6.49,-2.56 -12.74,-1.8 -9.46,-2.31 -4.5,-2.84 -4.77,-2.24 -4.71,-2.07 -4.99,-2.89 -4.36,-2.71 -4.12,-1.67 -6.33,-1.88 -2.9,-2.9 -0.7,-2.92 -0.72,-2.39 27.46,-2.03 47.41,-1.96 -29.5,-2.73 -49.67,-2.81 -1.51,-1.5 -0.73,-1.52 -3.54,-3.28 -2.63,-3.85 -2.15,-3.03 -2.21,-3.03 -2.15,-3.29 -1.75,-2.04 -4.35,-1.07 -3.47,-1.78 -1.22,-2.17 -3.33,-1.69 -3.21,-1.75 -1.74,-2.23 -1.74,-2.6 0.07,-2.64 -0.3,-2.36 18.82,-2.51 -1.48,-3.31 -21.91,-3.6 -4.81,-2.66 -2.05,-2.22 -1.41,-3.15 -0.97,-3.74 -0.54,-3.09 0.48,-2.34 7.78,-2.6 35.98,-3.05 58.37,-2.8 29.15,-2.29 1.22,-2.06 -6.32,-2.37 0.12,-2.8 6.62,-2.5 1.44,-1.9 0.82,-2.2 -0.56,-2.96 0.15,-2.81 -1.29,-1.76 -22.34,-1.76 -4.46,-3.06 19.49,-2.88 4.39,-1.75 -1.04,-2.31 -0.69,-3.06 -0.39,-2.37 -0.25,-2.48 0.16,-3.15 0.51,-2.25 1.49,-2.04 -1.04,-3.14 -2.64,-3.07 -9.51,-2.38 -67.72,-2.37 -54.48,-2.63 -0.12,-2.52 0.01,-2.58 -0.23,-3.01 0.02,-2.87 1.45,-2.27 -0.32,-1.99 -2.16,-2.46 -0.72,-3.37 0.11,-3.24 -0.12,-1.62 0.24,-1.33 -0.26,-3.31 -0.86,-3.65 0.71,-2 1.05,-1.86"
           style="fill:none;stroke:#e41a1c;stroke-width:1.07000005;stroke-linecap:butt;stroke-linejoin:round;stroke-miterlimit:10;stroke-dasharray:none;stroke-opacity:1"
           id="path3413"
           inkscape:connector-curvature="0" /><path
           d="m 318.28,538.43 0.55,1.22 -2.35,-0.48 1.57,-1.28 -0.79,0.18 0.79,1.22 -1.57,0.05 1.57,-0.96 1.57,-0.28 -2.36,0.52 -0.78,0.78 3.92,-0.19 -3.92,-1.2 -1.57,0.36 10.99,1.34 -12.56,-0.45 0.39,-1.18 0.39,0.28 1.57,0.77 1.57,-0.08 2.36,-0.79 -5.5,-1.2 2.36,-0.42 -1.57,-0.03 3.14,-1.45 0,-2.49 0,-2.4 3.92,-2.25 -3.92,-2.78 0,-3.44 3.92,-3.09 -4.71,-2.75 -1.57,-3.43 2.75,-3.42 2.75,-2.67 -3.14,-3.31 -1.57,-3.77 1.57,-2.34 -5.5,-2.32 -7.06,-4.25 0.78,-3.82 3.93,-1.99 -3.93,-2.62 0.4,-3.99 0.39,-3.36 0.78,-2.57 -2.35,-2.93 1.57,-3.07 3.92,-3.14 -2.35,-3.48 -3.93,-3.21 0.79,-2.65 2.75,-2.8 2.74,-3.51 0,-3.41 14.92,-2.61 27.47,-2.9 -7.85,-3.69 33.75,-3.19 -16.48,-2.53 29.04,-2.7 -11.38,-3.35 -11.38,-4.03 -0.79,-2.93 0,-1.46 -11.77,-2.94 -6.28,-4.97 -2.36,-3.69 7.07,-1.67 -7.07,-2.44 -1.57,-4.15 -1.57,-3.68 11.78,-2.33 -14.92,-2.62 0,-3.5 -4.71,-3.25 1.57,-2.93 -3.13,-3.08 -0.79,-2.94 2.35,-3.08 2.36,-3.28 24.33,-3.11 -29.04,-3.34 5.49,-3.28 -1.57,-2.82 -0.78,-3.13 -1.57,-3.52 3.14,-3.37 -0.39,-2.97 -0.4,-3.1 0.79,-3.44 5.49,-2.9 18.84,-3.08 -24.33,-3.7 -0.79,-3 -14.12,-2.76 0.39,-3.65 0.39,-3.41 -4.71,-2.71 -4.71,-3.22 -1.57,-3.55 -3.92,-3.18 -2.36,-3.22 1.57,-3.15 -5.49,-2.99 -1.57,-3.45 1.57,-3.3 1.57,-2.17 -3.93,-2.04 -4.71,-2.88 3.93,-2.56 -3.93,-1.8 -0.78,-2.31 -0.79,-2.84 -0.78,-2.24 -1.57,-2.07 -1.57,-2.89 -1.57,-2.71 3.92,-1.67 1.57,-1.88 -3.92,-2.9 0,-2.92 -1.57,-2.39 5.49,-2.03 -1.96,-1.96 -1.96,-2.73 0.78,-2.81 1.57,-1.5 -1.57,-1.52 -0.78,-3.28 0,-3.85 2.35,-3.03 -7.84,-3.03 0.78,-3.29 0.79,-2.04 4.7,-1.07 0,-1.78 -7.06,-2.17 -0.78,-1.69 0.78,-1.75 0,-2.23 -2.35,-2.6 0.39,-2.64 0.39,-2.36 1.57,-2.51 -7.06,-3.31 0,-3.6 4.71,-2.66 -0.79,-2.22 -3.14,-3.15 3.14,-3.74 -0.39,-3.09 -0.39,-2.34 1.57,-2.6 -1.57,-3.05 -0.79,-2.8 2.36,-2.29 -0.79,-2.06 2.36,-2.37 -2.36,-2.8 -0.39,-2.5 -0.39,-1.9 3.92,-2.2 -4.71,-2.96 -3.14,-2.81 3.93,-1.76 4.71,-1.76 -7.07,-3.06 0.79,-2.88 1.17,-1.75 1.18,-2.31 0.79,-3.06 -2.36,-2.37 -0.78,-2.48 0.78,-3.15 0.79,-2.25 0,-2.04 -1.57,-3.14 0.78,-3.07 0.79,-2.38 1.57,-2.37 -3.14,-2.63 -0.79,-2.52 1.57,-2.58 0,-3.01 0,-2.87 0,-2.27 -0.39,-1.99 -0.39,-2.46 1.57,-3.37 -3.93,-3.24 8.64,-1.62 -3.93,-1.33 -3.14,-3.31 1.57,-3.65 -3.92,-2 3.14,-1.86"
           style="fill:none;stroke:#377eb8;stroke-width:1.07000005;stroke-linecap:butt;stroke-linejoin:round;stroke-miterlimit:10;stroke-dasharray:none;stroke-opacity:1"
           id="path3415"
           inkscape:connector-curvature="0" /><path
           d="m 201.33,538.43 4.96,1.22 28.01,-0.48 -12.61,-1.28 -12.6,0.18 -22.4,1.22 5.6,0.05 -47.6,-0.96 42,-0.28 5.6,0.52 5.6,0.78 2.8,-0.19 22.4,-1.2 -22.4,0.36 -16.8,1.34 53.21,-0.45 -53.21,-1.18 -14,0.28 75.61,0.77 -15.41,-0.08 -15.4,-0.79 -14,-1.2 0,-0.42 14,-0.03 -30.8,-1.45 14,-2.49 2.8,-2.4 22.4,-2.25 -19.6,-2.78 14,-3.44 -2.8,-3.09 -11.2,-2.75 8.4,-3.43 8.4,-3.42 -11.2,-2.67 1.4,-3.31 1.4,-3.77 11.2,-2.34 0,-2.32 -2.8,-4.25 5.6,-3.82 -11.2,-1.99 8.4,-2.62 8.4,-3.99 -8.4,-3.36 0,-2.57 14.01,-2.93 -16.81,-3.07 -2.8,-3.14 22.41,-3.48 -2.8,-3.21 -8.41,-2.65 -8.4,-2.8 5.6,-3.51 30.81,-3.41 -2.8,-2.61 16.8,-2.9 39.2,-3.69 14,-3.19 2.8,-2.53 19.61,-2.7 11.2,-3.35 -14,-4.03 11.2,-2.93 11.2,-1.46 28,-2.94 -8.4,-4.97 8.4,-3.69 8.4,-1.67 28,-2.44 -8.4,-4.15 -8.4,-3.68 16.8,-2.33 11.2,-2.62 -5.6,-3.5 -14,-3.25 14,-2.93 14,-3.08 -11.2,-2.94 5.6,-3.08 16.81,-3.28 2.8,-3.11 8.4,-3.34 7,-3.28 7,-2.82 -2.8,-3.13 22.4,-3.52 2.8,-3.37 19.6,-2.97 22.4,-3.1 14.01,-3.44 39.2,-2.9 30.8,-3.08 11.2,-3.7 67.21,-3 -75.61,-2.76 5.6,-3.65 -56,-3.41 -29.41,-2.71 -29.4,-3.22 -16.8,-3.55 -25.2,-3.18 -5.6,-3.22 -22.4,-3.15 -28.01,-2.99 -2.8,-3.45 -14,-3.3 -16.8,-2.17 -33.6,-2.04 5.6,-2.88 -8.4,-2.56 0,-1.8 -25.21,-2.31 -5.6,-2.84 -1.4,-2.24 -1.4,-2.07 -19.6,-2.89 0,-2.71 -16.8,-1.67 0,-1.88 -2.8,-2.9 2.8,-2.92 -5.6,-2.39 -2.8,-2.03 -2.8,-1.96 0,-2.73 16.8,-2.81 -22.4,-1.5 -8.4,-1.52 -2.8,-3.28 2.8,-3.85 2.8,-3.03 -8.4,-3.03 -8.4,-3.29 -2.8,-2.04 2.8,-1.07 -5.6,-1.78 -11.2,-2.17 -11.21,-1.69 2.8,-1.75 0,-2.23 -11.2,-2.6 0,-2.64 -2.8,-2.36 -5.6,-2.51 -2.8,-3.31 4.2,-3.6 4.2,-2.66 -8.4,-2.22 2.8,-3.15 5.6,-3.74 -14,-3.09 8.4,-2.34 0,-2.6 -16.8,-3.05 19.6,-2.8 2.8,-2.29 -19.6,-2.06 25.2,-2.37 0,-2.8 -28,-2.5 9.8,-1.9 9.8,-2.2 5.6,-2.96 -2.8,-2.81 -8.4,-1.76 5.6,-1.76 -2.8,-3.06 -2.8,-2.88 0,-1.75 -2.8,-2.31 0,-3.06 2.8,-2.37 -5.6,-2.48 5.6,-3.15 -2.8,-2.25 -14,-2.04 5.6,-3.14 5.6,-3.07 -8.4,-2.38 8.4,-2.37 -14,-2.63 11.2,-2.52 -8.4,-2.58 2.8,-3.01 0,-2.87 5.6,-2.27 -2.8,-1.99 -8.4,-2.46 8.4,-3.37 -5.6,-3.24 11.2,-1.62 -5.6,-1.33 -2.8,-3.31 -2.8,-3.65 14,-2 -11.2,-1.86"
           style="fill:none;stroke:#4daf4a;stroke-width:1.07000005;stroke-linecap:butt;stroke-linejoin:round;stroke-miterlimit:10;stroke-dasharray:none;stroke-opacity:1"
           id="path3417"
           inkscape:connector-curvature="0" /></g></g><g
       id="g3419" /><g
       id="g3421" /><g
       id="g3423" /><g
       id="g3425" /><g
       id="g3427" /><g
       id="g3429" /><g
       id="g3431" /><g
       id="g3433" /><g
       id="g3435" /><g
       id="g3437" /><g
       id="g3439"><path
         d="m 43.57,564.18 701.45,0"
         style="fill:none;stroke:#000000;stroke-width:1.07000005;stroke-linecap:butt;stroke-linejoin:round;stroke-miterlimit:10;stroke-dasharray:none;stroke-opacity:1"
         id="path3441"
         inkscape:connector-curvature="0" /></g><g
       id="g3443" /><g
       id="g3445" /><g
       id="g3447"><text
         transform="matrix(1,0,0,-1,224.24,569.11)"
         style="font-variant:normal;font-weight:normal;font-size:9px;font-family:Helvetica;-inkscape-font-specification:Helvetica;writing-mode:lr-tb;fill:#4d4d4d;fill-opacity:1;fill-rule:nonzero;stroke:none"
         id="text3449"><tspan
           x="0 5.0040002 10.008"
           y="0"
           sodipodi:role="line"
           id="tspan3451">250</tspan></text>
<text
         transform="matrix(1,0,0,-1,420.14,569.11)"
         style="font-variant:normal;font-weight:normal;font-size:9px;font-family:Helvetica;-inkscape-font-specification:Helvetica;writing-mode:lr-tb;fill:#4d4d4d;fill-opacity:1;fill-rule:nonzero;stroke:none"
         id="text3453"><tspan
           x="0 5.0040002 10.008"
           y="0"
           sodipodi:role="line"
           id="tspan3455">500</tspan></text>
<text
         transform="matrix(1,0,0,-1,616.75,569.11)"
         style="font-variant:normal;font-weight:normal;font-size:9px;font-family:Helvetica;-inkscape-font-specification:Helvetica;writing-mode:lr-tb;fill:#4d4d4d;fill-opacity:1;fill-rule:nonzero;stroke:none"
         id="text3457"><tspan
           x="0 5.0040002 10.008"
           y="0"
           sodipodi:role="line"
           id="tspan3459">750</tspan></text>
</g><g
       id="g3461" /><g
       id="g3463"><path
         d="m 231.75,564.18 0,2.74"
         style="fill:none;stroke:#333333;stroke-width:1.07000005;stroke-linecap:butt;stroke-linejoin:round;stroke-miterlimit:10;stroke-dasharray:none;stroke-opacity:1"
         id="path3465"
         inkscape:connector-curvature="0" /><path
         d="m 427.65,564.18 0,2.74"
         style="fill:none;stroke:#333333;stroke-width:1.07000005;stroke-linecap:butt;stroke-linejoin:round;stroke-miterlimit:10;stroke-dasharray:none;stroke-opacity:1"
         id="path3467"
         inkscape:connector-curvature="0" /><path
         d="m 624.25,564.18 0,2.74"
         style="fill:none;stroke:#333333;stroke-width:1.07000005;stroke-linecap:butt;stroke-linejoin:round;stroke-miterlimit:10;stroke-dasharray:none;stroke-opacity:1"
         id="path3469"
         inkscape:connector-curvature="0" /></g><g
       id="g3471" /><g
       id="g3473" /><g
       id="g3475" /><g
       id="g3477" /><g
       id="g3479"><path
         d="m 43.57,31.26 0,532.92"
         style="fill:none;stroke:#000000;stroke-width:1.07000005;stroke-linecap:butt;stroke-linejoin:round;stroke-miterlimit:10;stroke-dasharray:none;stroke-opacity:1"
         id="path3481"
         inkscape:connector-curvature="0" /></g><g
       id="g3483" /><g
       id="g3485" /><g
       id="g3487"><text
         transform="matrix(1,0,0,-1,18.37,47.9)"
         style="font-variant:normal;font-weight:normal;font-size:9px;font-family:Helvetica;-inkscape-font-specification:Helvetica;writing-mode:lr-tb;fill:#4d4d4d;fill-opacity:1;fill-rule:nonzero;stroke:none"
         id="text3489"><tspan
           x="0 5.256 10.26 15.264"
           y="0"
           sodipodi:role="line"
           id="tspan3491">−100</tspan></text>
<text
         transform="matrix(1,0,0,-1,23.37,173.45)"
         style="font-variant:normal;font-weight:normal;font-size:9px;font-family:Helvetica;-inkscape-font-specification:Helvetica;writing-mode:lr-tb;fill:#4d4d4d;fill-opacity:1;fill-rule:nonzero;stroke:none"
         id="text3493"><tspan
           x="0 5.256 10.26"
           y="0"
           sodipodi:role="line"
           id="tspan3495">−75</tspan></text>
<text
         transform="matrix(1,0,0,-1,23.37,299.01)"
         style="font-variant:normal;font-weight:normal;font-size:9px;font-family:Helvetica;-inkscape-font-specification:Helvetica;writing-mode:lr-tb;fill:#4d4d4d;fill-opacity:1;fill-rule:nonzero;stroke:none"
         id="text3497"><tspan
           x="0 5.256 10.26"
           y="0"
           sodipodi:role="line"
           id="tspan3499">−50</tspan></text>
<text
         transform="matrix(1,0,0,-1,23.37,424.57)"
         style="font-variant:normal;font-weight:normal;font-size:9px;font-family:Helvetica;-inkscape-font-specification:Helvetica;writing-mode:lr-tb;fill:#4d4d4d;fill-opacity:1;fill-rule:nonzero;stroke:none"
         id="text3501"><tspan
           x="0 5.256 10.26"
           y="0"
           sodipodi:role="line"
           id="tspan3503">−25</tspan></text>
<text
         transform="matrix(1,0,0,-1,33.63,550.12)"
         style="font-variant:normal;font-weight:normal;font-size:9px;font-family:Helvetica;-inkscape-font-specification:Helvetica;writing-mode:lr-tb;fill:#4d4d4d;fill-opacity:1;fill-rule:nonzero;stroke:none"
         id="text3505"><tspan
           x="0"
           y="0"
           id="tspan3507">0</tspan></text>
</g><g
       id="g3509" /><g
       id="g3511"><path
         d="m 40.83,51.13 2.74,0"
         style="fill:none;stroke:#333333;stroke-width:1.07000005;stroke-linecap:butt;stroke-linejoin:round;stroke-miterlimit:10;stroke-dasharray:none;stroke-opacity:1"
         id="path3513"
         inkscape:connector-curvature="0" /><path
         d="m 40.83,176.68 2.74,0"
         style="fill:none;stroke:#333333;stroke-width:1.07000005;stroke-linecap:butt;stroke-linejoin:round;stroke-miterlimit:10;stroke-dasharray:none;stroke-opacity:1"
         id="path3515"
         inkscape:connector-curvature="0" /><path
         d="m 40.83,302.24 2.74,0"
         style="fill:none;stroke:#333333;stroke-width:1.07000005;stroke-linecap:butt;stroke-linejoin:round;stroke-miterlimit:10;stroke-dasharray:none;stroke-opacity:1"
         id="path3517"
         inkscape:connector-curvature="0" /><path
         d="m 40.83,427.8 2.74,0"
         style="fill:none;stroke:#333333;stroke-width:1.07000005;stroke-linecap:butt;stroke-linejoin:round;stroke-miterlimit:10;stroke-dasharray:none;stroke-opacity:1"
         id="path3519"
         inkscape:connector-curvature="0" /><path
         d="m 40.83,553.35 2.74,0"
         style="fill:none;stroke:#333333;stroke-width:1.07000005;stroke-linecap:butt;stroke-linejoin:round;stroke-miterlimit:10;stroke-dasharray:none;stroke-opacity:1"
         id="path3521"
         inkscape:connector-curvature="0" /></g><g
       id="g3523" /><g
       id="g3525" /><g
       id="g3527" /><g
       id="g3529" /><g
       id="g3531" /><g
       id="g3533" /><g
       id="g3535"><path
         d="m 43.57,31.26 701.45,0"
         style="fill:none;stroke:#000000;stroke-width:1.07000005;stroke-linecap:butt;stroke-linejoin:round;stroke-miterlimit:10;stroke-dasharray:none;stroke-opacity:1"
         id="path3537"
         inkscape:connector-curvature="0" /></g><g
       id="g3539" /><g
       id="g3541" /><g
       id="g3543"><path
         d="m 253.39,28.52 0,2.74"
         style="fill:none;stroke:#333333;stroke-width:1.07000005;stroke-linecap:butt;stroke-linejoin:round;stroke-miterlimit:10;stroke-dasharray:none;stroke-opacity:1"
         id="path3545"
         inkscape:connector-curvature="0" /><path
         d="m 471.31,28.52 0,2.74"
         style="fill:none;stroke:#333333;stroke-width:1.07000005;stroke-linecap:butt;stroke-linejoin:round;stroke-miterlimit:10;stroke-dasharray:none;stroke-opacity:1"
         id="path3547"
         inkscape:connector-curvature="0" /><path
         d="m 689.23,28.52 0,2.74"
         style="fill:none;stroke:#333333;stroke-width:1.07000005;stroke-linecap:butt;stroke-linejoin:round;stroke-miterlimit:10;stroke-dasharray:none;stroke-opacity:1"
         id="path3549"
         inkscape:connector-curvature="0" /></g><g
       id="g3551" /><g
       id="g3553"><text
         transform="matrix(1,0,0,-1,247.14,19.87)"
         style="font-variant:normal;font-weight:normal;font-size:9px;font-family:Helvetica;-inkscape-font-specification:Helvetica;writing-mode:lr-tb;fill:#4d4d4d;fill-opacity:1;fill-rule:nonzero;stroke:none"
         id="text3555"><tspan
           x="0 5.0040002 7.506"
           y="0"
           sodipodi:role="line"
           id="tspan3557">0.1</tspan></text>
<text
         transform="matrix(1,0,0,-1,465.06,19.87)"
         style="font-variant:normal;font-weight:normal;font-size:9px;font-family:Helvetica;-inkscape-font-specification:Helvetica;writing-mode:lr-tb;fill:#4d4d4d;fill-opacity:1;fill-rule:nonzero;stroke:none"
         id="text3559"><tspan
           x="0 5.0040002 7.506"
           y="0"
           sodipodi:role="line"
           id="tspan3561">0.2</tspan></text>
<text
         transform="matrix(1,0,0,-1,682.97,19.87)"
         style="font-variant:normal;font-weight:normal;font-size:9px;font-family:Helvetica;-inkscape-font-specification:Helvetica;writing-mode:lr-tb;fill:#4d4d4d;fill-opacity:1;fill-rule:nonzero;stroke:none"
         id="text3563"><tspan
           x="0 5.0040002 7.506"
           y="0"
           sodipodi:role="line"
           id="tspan3565">0.3</tspan></text>
</g><g
       id="g3567" /><g
       id="g3569" /><g
       id="g3571" /><g
       id="g3573"><text
         transform="matrix(1,0,0,-1,379.06,579.81)"
         style="font-variant:normal;font-weight:normal;font-size:11px;font-family:Helvetica;-inkscape-font-specification:Helvetica;writing-mode:lr-tb;fill:#000000;fill-opacity:1;fill-rule:nonzero;stroke:none"
         id="text3575"><tspan
           x="0 6.006 12.122 18.238001 24.354"
           y="0"
           sodipodi:role="line"
           id="tspan3577">bb700</tspan></text>
</g><g
       id="g3579" /><g
       id="g3581"><text
         transform="matrix(1,0,0,-1,351.24,7.73)"
         style="font-variant:normal;font-weight:normal;font-size:11px;font-family:Helvetica;-inkscape-font-specification:Helvetica;writing-mode:lr-tb;fill:#000000;fill-opacity:1;fill-rule:nonzero;stroke:none"
         id="text3583"><tspan
           x="0 7.3369999 13.453 19.569 28.732 31.790001 37.905998 40.964001 44.021999 50.138 56.144001 62.259998 68.375999 71.433998 73.875999 79.991997"
           y="0"
           sodipodi:role="line"
           id="tspan3585">Beam attenuation</tspan></text>
</g><g
       id="g3587" /><g
       id="g3589"><text
         transform="matrix(0,1,1,0,13.38,283.81)"
         style="font-variant:normal;font-weight:normal;font-size:11px;font-family:Helvetica;-inkscape-font-specification:Helvetica;writing-mode:lr-tb;fill:#000000;fill-opacity:1;fill-rule:nonzero;stroke:none"
         id="text3591"><tspan
           x="0 6.4239998 12.54 16.202999 22.319"
           y="0"
           sodipodi:role="line"
           id="tspan3593">−pres</tspan></text>
</g><g
       id="g3595" /><g
       id="g3597" /><g
       id="g3599" /><g
       id="g3601" /><g
       id="g3603" /><g
       id="g3605" /><g
       id="g3607" /><g
       id="g3609"><path
         d="m 755.98,258.33 80.22,0 0,78.78 -80.22,0 0,-78.78 z"
         style="fill:#ffffff;fill-opacity:1;fill-rule:nonzero;stroke:none"
         id="path3611"
         inkscape:connector-curvature="0" /></g><g
       id="g3613" /><g
       id="g3615" /><g
       id="g3617" /><g
       id="g3619"><text
         transform="matrix(1,0,0,-1,761.46,322.43)"
         style="font-variant:normal;font-weight:normal;font-size:11px;font-family:Helvetica;-inkscape-font-specification:Helvetica;writing-mode:lr-tb;fill:#000000;fill-opacity:1;fill-rule:nonzero;stroke:none"
         id="text3621"><tspan
           x="0 5.5 11.616 14.058 20.174 26.290001"
           y="0"
           sodipodi:role="line"
           id="tspan3623">colour</tspan></text>
</g><g
       id="g3625" /><g
       id="g3627" /><g
       id="g3629" /><g
       id="g3631" /><g
       id="g3633"><path
         d="m 763.19,307.01 13.82,0"
         style="fill:none;stroke:#e41a1c;stroke-width:1.07000005;stroke-linecap:butt;stroke-linejoin:round;stroke-miterlimit:10;stroke-dasharray:none;stroke-opacity:1"
         id="path3635"
         inkscape:connector-curvature="0" /></g><g
       id="g3637" /><g
       id="g3639"><path
         d="m 763.19,307.01 13.82,0"
         style="fill:none;stroke:#e41a1c;stroke-width:1.07000005;stroke-linecap:butt;stroke-linejoin:round;stroke-miterlimit:10;stroke-dasharray:none;stroke-opacity:1"
         id="path3641"
         inkscape:connector-curvature="0" /></g><g
       id="g3643" /><g
       id="g3645"><path
         d="m 763.19,307.01 13.82,0"
         style="fill:none;stroke:#e41a1c;stroke-width:1.07000005;stroke-linecap:butt;stroke-linejoin:round;stroke-miterlimit:10;stroke-dasharray:none;stroke-opacity:1"
         id="path3647"
         inkscape:connector-curvature="0" /></g><g
       id="g3649" /><g
       id="g3651" /><g
       id="g3653" /><g
       id="g3655"><path
         d="m 763.19,289.73 13.82,0"
         style="fill:none;stroke:#377eb8;stroke-width:1.07000005;stroke-linecap:butt;stroke-linejoin:round;stroke-miterlimit:10;stroke-dasharray:none;stroke-opacity:1"
         id="path3657"
         inkscape:connector-curvature="0" /></g><g
       id="g3659" /><g
       id="g3661"><path
         d="m 763.19,289.73 13.82,0"
         style="fill:none;stroke:#377eb8;stroke-width:1.07000005;stroke-linecap:butt;stroke-linejoin:round;stroke-miterlimit:10;stroke-dasharray:none;stroke-opacity:1"
         id="path3663"
         inkscape:connector-curvature="0" /></g><g
       id="g3665" /><g
       id="g3667"><path
         d="m 763.19,289.73 13.82,0"
         style="fill:none;stroke:#377eb8;stroke-width:1.07000005;stroke-linecap:butt;stroke-linejoin:round;stroke-miterlimit:10;stroke-dasharray:none;stroke-opacity:1"
         id="path3669"
         inkscape:connector-curvature="0" /></g><g
       id="g3671" /><g
       id="g3673" /><g
       id="g3675" /><g
       id="g3677"><path
         d="m 763.19,272.45 13.82,0"
         style="fill:none;stroke:#4daf4a;stroke-width:1.07000005;stroke-linecap:butt;stroke-linejoin:round;stroke-miterlimit:10;stroke-dasharray:none;stroke-opacity:1"
         id="path3679"
         inkscape:connector-curvature="0" /></g><g
       id="g3681" /><g
       id="g3683"><path
         d="m 763.19,272.45 13.82,0"
         style="fill:none;stroke:#4daf4a;stroke-width:1.07000005;stroke-linecap:butt;stroke-linejoin:round;stroke-miterlimit:10;stroke-dasharray:none;stroke-opacity:1"
         id="path3685"
         inkscape:connector-curvature="0" /></g><g
       id="g3687" /><g
       id="g3689"><path
         d="m 763.19,272.45 13.82,0"
         style="fill:none;stroke:#4daf4a;stroke-width:1.07000005;stroke-linecap:butt;stroke-linejoin:round;stroke-miterlimit:10;stroke-dasharray:none;stroke-opacity:1"
         id="path3691"
         inkscape:connector-curvature="0" /></g><g
       id="g3693" /><g
       id="g3695" /><g
       id="g3697" /><g
       id="g3699"><text
         transform="matrix(1,0,0,-1,784.22,303.78)"
         style="font-variant:normal;font-weight:normal;font-size:9px;font-family:Helvetica;-inkscape-font-specification:Helvetica;writing-mode:lr-tb;fill:#000000;fill-opacity:1;fill-rule:nonzero;stroke:none"
         id="text3701"><tspan
           x="0 6.0029998 8.5050001 11.007 16.011 20.924999 25.929001 30.933001 33.435001 35.432999 40.437"
           y="0"
           sodipodi:role="line"
           id="tspan3703">Attenuation</tspan></text>
</g><g
       id="g3705" /><g
       id="g3707" /><g
       id="g3709" /><g
       id="g3711" /><g
       id="g3713"><text
         transform="matrix(1,0,0,-1,784.22,286.5)"
         style="font-variant:normal;font-weight:normal;font-size:9px;font-family:Helvetica;-inkscape-font-specification:Helvetica;writing-mode:lr-tb;fill:#000000;fill-opacity:1;fill-rule:nonzero;stroke:none"
         id="text3715"><tspan
           x="0 4.914 9.9180002 14.922 19.926001"
           y="0"
           sodipodi:role="line"
           id="tspan3717">bb700</tspan></text>
</g><g
       id="g3719" /><g
       id="g3721" /><g
       id="g3723" /><g
       id="g3725" /><g
       id="g3727"><text
         transform="matrix(1,0,0,-1,784.22,269.22)"
         style="font-variant:normal;font-weight:normal;font-size:9px;font-family:Helvetica;-inkscape-font-specification:Helvetica;writing-mode:lr-tb;fill:#000000;fill-opacity:1;fill-rule:nonzero;stroke:none"
         id="text3729"><tspan
           x="0 2.5020001 4.5 9.5039997 14.508 19.511999 24.516001"
           y="0"
           sodipodi:role="line"
           id="tspan3731">fluo470</tspan></text>
</g><g
       id="g3733" /><g
       id="g3735" /><g
       id="g3737" /><g
       id="g3739" /><g
       id="g3741" /><g
       id="g3743" /><g
       id="g3745" /><g
       id="g3747" /><g
       id="g3749" /><g
       id="g3751" /><g
       id="g3753" /><g
       id="g3755" /><g
       id="g3757" /><path
       style="fill:none;fill-rule:evenodd;stroke:#000000;stroke-width:0.80000001px;stroke-linecap:butt;stroke-linejoin:miter;stroke-opacity:1"
       d="m 43.949879,43.94988 701.824641,0 0,0 0,0"
       id="path3759"
       inkscape:connector-curvature="0" /><path
       style="fill:none;fill-rule:evenodd;stroke:#000000;stroke-width:0.80000001px;stroke-linecap:butt;stroke-linejoin:miter;stroke-opacity:1"
       d="m 253.05517,43.94988 -0.11446,-3.20468 0,0 0,0"
       id="path3761"
       inkscape:connector-curvature="0" /><text
       xml:space="preserve"
       style="font-style:normal;font-weight:normal;font-size:9px;line-height:125%;font-family:sans-serif;letter-spacing:0px;word-spacing:0px;writing-mode:lr-tb;fill:#666666;fill-opacity:1;stroke:none;stroke-width:1px;stroke-linecap:butt;stroke-linejoin:miter;stroke-opacity:1"
       x="247.21806"
       y="-33.763584"
       id="text3763"
       sodipodi:linespacing="125%"
       transform="scale(1,-1)"><tspan
         sodipodi:role="line"
         id="tspan3765"
         x="247.21806"
         y="-33.763584">78</tspan></text>
<text
       xml:space="preserve"
       style="font-style:normal;font-weight:normal;font-size:9px;line-height:125%;font-family:sans-serif;letter-spacing:0px;word-spacing:0px;writing-mode:lr-tb;fill:#666666;fill-opacity:1;stroke:none;stroke-width:1px;stroke-linecap:butt;stroke-linejoin:miter;stroke-opacity:1"
       x="450.98114"
       y="-33.62812"
       id="text3763-3"
       sodipodi:linespacing="125%"
       transform="scale(1,-1)"><tspan
         sodipodi:role="line"
         id="tspan3765-6"
         x="450.98114"
         y="-33.62812">150</tspan></text>
<path
       style="fill:none;fill-rule:evenodd;stroke:#000000;stroke-width:0.80000001px;stroke-linecap:butt;stroke-linejoin:miter;stroke-opacity:1"
       d="m 459.52258,44.026112 0.006,-3.109232 0,0 0,0"
       id="path3785"
       inkscape:connector-curvature="0" /><path
       style="fill:none;fill-rule:evenodd;stroke:#000000;stroke-width:0.80000001px;stroke-linecap:butt;stroke-linejoin:miter;stroke-opacity:1"
       d="m 678.84386,44.107048 0.0809,-4.855824"
       id="path3787"
       inkscape:connector-curvature="0" /><text
       xml:space="preserve"
       style="font-style:normal;font-weight:normal;font-size:9px;line-height:125%;font-family:sans-serif;letter-spacing:0px;word-spacing:0px;writing-mode:lr-tb;fill:#666666;fill-opacity:1;stroke:none;stroke-width:1px;stroke-linecap:butt;stroke-linejoin:miter;stroke-opacity:1"
       x="670.78802"
       y="-32.495094"
       id="text3763-7"
       sodipodi:linespacing="125%"
       transform="scale(1,-1)"><tspan
         sodipodi:role="line"
         id="tspan3765-5"
         x="670.78802"
         y="-32.495094">230</tspan></text>
<text
       xml:space="preserve"
       style="font-style:normal;font-weight:normal;font-size:11px;line-height:125%;font-family:sans-serif;letter-spacing:0px;word-spacing:0px;fill:#000000;fill-opacity:1;stroke:none;stroke-width:1px;stroke-linecap:butt;stroke-linejoin:miter;stroke-opacity:1"
       x="391.05548"
       y="-51.148003"
       id="text3797"
       sodipodi:linespacing="125%"
       transform="scale(1,-1)"><tspan
         sodipodi:role="line"
         id="tspan3799"
         x="391.05548"
         y="-51.148003">DC</tspan></text>
</g></svg>